<?xml version="1.0" standalone="no"?><!-- Generator: Gravit.io --><svg xmlns="http://www.w3.org/2000/svg" xmlns:xlink="http://www.w3.org/1999/xlink" style="isolation:isolate" viewBox="180 469.692 177 87.352" width="177" height="87.352"><path d=" M 313.478 513.063 L 313.478 513.063 L 313.478 513.063 Q 313.478 531.582 300.668 544.008 L 300.668 544.008 L 300.668 544.008 Q 287.248 557.044 265.41 557.044 L 265.41 557.044 L 265.41 557.044 Q 244.792 557.044 232.531 545.592 L 232.531 545.592 L 232.531 545.592 Q 220.27 534.14 220.27 513.551 L 220.27 513.551 L 220.27 513.551 Q 220.27 494.667 232.836 482.484 L 232.836 482.484 L 232.836 482.484 Q 246.012 469.692 268.338 469.692 L 268.338 469.692 L 268.338 469.692 Q 292.006 469.692 303.962 484.312 L 303.962 484.312 L 303.962 484.312 Q 313.478 496.007 313.478 513.063 Z  M 267.606 477.012 L 267.606 477.012 L 267.606 477.012 Q 254.552 477.012 247.72 486.756 L 247.72 486.756 L 247.72 486.756 Q 240.522 496.986 240.522 517.083 L 240.522 517.083 L 240.522 517.083 Q 240.522 530.48 246.378 539.371 L 246.378 539.371 L 246.378 539.371 Q 253.21 549.724 266.02 549.724 L 266.02 549.724 L 266.02 549.724 Q 279.318 549.724 286.638 537.91 L 286.638 537.91 L 286.638 537.91 Q 293.226 527.192 293.226 510.749 L 293.226 510.749 L 293.226 510.749 Q 293.226 497.23 287.37 487.974 L 287.37 487.974 L 287.37 487.974 Q 280.416 477.012 267.606 477.012 Z " fill-rule="evenodd" fill="rgb(255,255,255)"/><path d=" M 180 513.5 C 180 506.049 186.049 500 193.5 500 C 200.951 500 207 506.049 207 513.5 C 207 520.951 200.951 527 193.5 527 C 186.049 527 180 520.951 180 513.5 Z " fill="#FB4441"/><path d=" M 255 513.5 C 255 506.049 261.049 500 268.5 500 C 275.951 500 282 506.049 282 513.5 C 282 520.951 275.951 527 268.5 527 C 261.049 527 255 520.951 255 513.5 Z " fill="#FB4441"/><path d=" M 330 513.5 C 330 506.049 336.049 500 343.5 500 C 350.951 500 357 506.049 357 513.5 C 357 520.951 350.951 527 343.5 527 C 336.049 527 330 520.951 330 513.5 Z " fill="#FB4441"/></svg>
